<svg xmlns="http://www.w3.org/2000/svg" viewBox="0 0 128 128">
  <defs>
    <linearGradient id="g" x1="0" x2="1" y1="0" y2="1">
      <stop offset="0" stop-color="#ECF3FF"/>
      <stop offset="1" stop-color="#D6E8FF"/>
    </linearGradient>
  </defs>
  <rect width="128" height="128" rx="24" fill="#0c2340"/>
  <g transform="translate(22,18)">
    <path d="M42 4c8 0 14 5 18 11c4 6 6 13 6 20c0 9-3 17-7 23c-3 5-7 9-10 9c-5 0-7-9-12-9s-7 9-12 9c-3 0-7-4-10-9c-4-6-7-14-7-23c0-7 2-14 6-20C18 9 24 4 32 4z" fill="url(#g)" stroke="#ffffff" stroke-width="2"/>
  </g>
</svg>

